HIERARCHY
ROOT Hips
{
	OFFSET 0.000000 89.005402 0.000000
	CHANNELS 6 Xposition Yposition Zposition Xrotation Yrotation Zrotation
	JOINT Spine
	{
		OFFSET 0.116900 10.681000 0.373400
		CHANNELS 3 Xrotation Yrotation Zrotation
		JOINT Spine1
		{
			OFFSET 0.000000 13.840401 0.053500
			CHANNELS 3 Xrotation Yrotation Zrotation
			JOINT Spine2
			{
				OFFSET 0.000000 14.712700 -0.366200
				CHANNELS 3 Xrotation Yrotation Zrotation
				JOINT Neck
				{
					OFFSET 0.000000 35.415497 -3.314200
					CHANNELS 3 Xrotation Yrotation Zrotation
					JOINT Head
					{
						OFFSET 0.000000 16.899200 1.218300
						CHANNELS 3 Xrotation Yrotation Zrotation
						JOINT HeadTop_End
						{
							OFFSET 0.000000 22.206207 2.192500
							CHANNELS 3 Xrotation Yrotation Zrotation
							End Site
							{
								OFFSET 0.000000 22.314178 0.000000
							}
						}
					}
				}
				JOINT LeftShoulder
				{
					OFFSET 12.896400 26.716293 -4.548400
					CHANNELS 3 Xrotation Yrotation Zrotation
					JOINT LeftArm
					{
						OFFSET 19.027000 -4.857010 -1.718400
						CHANNELS 3 Xrotation Yrotation Zrotation
						JOINT LeftForeArm
						{
							OFFSET 24.179897 0.000000 0.000000
							CHANNELS 3 Xrotation Yrotation Zrotation
							JOINT LeftHand
							{
								OFFSET 27.156403 0.000000 0.000000
								CHANNELS 3 Xrotation Yrotation Zrotation
								JOINT LeftHandIndex1
								{
									OFFSET 16.441200 0.000000 0.000000
									CHANNELS 3 Xrotation Yrotation Zrotation
									JOINT LeftHandIndex2
									{
										OFFSET 4.821899 0.000000 0.000000
										CHANNELS 3 Xrotation Yrotation Zrotation
										JOINT LeftHandIndex3
										{
											OFFSET 6.386497 0.000000 0.000000
											CHANNELS 3 Xrotation Yrotation Zrotation
											JOINT LeftHandIndex4
											{
												OFFSET 5.188988 0.000000 0.000000
												CHANNELS 3 Xrotation Yrotation Zrotation
												End Site
												{
													OFFSET -0.178703 5.185913 0.000177
												}
											}
										}
									}
								}
								JOINT LeftHandThumb1
								{
									OFFSET 6.534897 -5.032593 5.900300
									CHANNELS 3 Xrotation Yrotation Zrotation
									JOINT LeftHandThumb2
									{
										OFFSET 3.818176 -2.204422 2.204423
										CHANNELS 3 Xrotation Yrotation Zrotation
										JOINT LeftHandThumb3
										{
											OFFSET 3.252098 -1.877594 1.877601
											CHANNELS 3 Xrotation Yrotation Zrotation
											JOINT LeftHandThumb4
											{
												OFFSET 5.251778 -3.032120 3.032117
												CHANNELS 3 Xrotation Yrotation Zrotation
												End Site
												{
													OFFSET 0.000023 6.780014 0.000000
												}
											}
										}
									}
								}
							}
						}
					}
				}
				JOINT RightShoulder
				{
					OFFSET -12.896300 26.716293 -4.548400
					CHANNELS 3 Xrotation Yrotation Zrotation
					JOINT RightArm
					{
						OFFSET -19.027000 -4.857010 -1.718400
						CHANNELS 3 Xrotation Yrotation Zrotation
						JOINT RightForeArm
						{
							OFFSET -24.179897 0.000000 0.000000
							CHANNELS 3 Xrotation Yrotation Zrotation
							JOINT RightHand
							{
								OFFSET -27.156403 0.000000 0.000000
								CHANNELS 3 Xrotation Yrotation Zrotation
								JOINT RightHandThumb1
								{
									OFFSET -6.591202 -4.852203 5.988100
									CHANNELS 3 Xrotation Yrotation Zrotation
									JOINT RightHandThumb2
									{
										OFFSET -3.818176 -2.204422 2.204423
										CHANNELS 3 Xrotation Yrotation Zrotation
										JOINT RightHandThumb3
										{
											OFFSET -3.252098 -1.877594 1.877601
											CHANNELS 3 Xrotation Yrotation Zrotation
											JOINT RightHandThumb4
											{
												OFFSET -5.251778 -3.032120 3.032117
												CHANNELS 3 Xrotation Yrotation Zrotation
												End Site
												{
													OFFSET -0.000023 6.780014 0.000000
												}
											}
										}
									}
								}
								JOINT RightHandIndex1
								{
									OFFSET -16.029404 0.000000 0.000000
									CHANNELS 3 Xrotation Yrotation Zrotation
									JOINT RightHandIndex2
									{
										OFFSET -5.213303 0.000000 0.000000
										CHANNELS 3 Xrotation Yrotation Zrotation
										JOINT RightHandIndex3
										{
											OFFSET -6.386528 0.000000 0.000000
											CHANNELS 3 Xrotation Yrotation Zrotation
											JOINT RightHandIndex4
											{
												OFFSET -5.189026 0.000000 0.000000
												CHANNELS 3 Xrotation Yrotation Zrotation
												End Site
												{
													OFFSET 0.236702 5.183624 0.001972
												}
											}
										}
									}
								}
							}
						}
					}
				}
			}
		}
	}
	JOINT LeftUpLeg
	{
		OFFSET 14.073000 -7.904099 -1.463000
		CHANNELS 3 Xrotation Yrotation Zrotation
		JOINT LeftLeg
		{
			OFFSET -0.109806 -34.073280 4.093200
			CHANNELS 3 Xrotation Yrotation Zrotation
			JOINT LeftFoot
			{
				OFFSET 0.109806 -29.899420 -6.319000
				CHANNELS 3 Xrotation Yrotation Zrotation
				JOINT LeftToeBase
				{
					OFFSET 1.551100 -14.988700 20.535801
					CHANNELS 3 Xrotation Yrotation Zrotation
					JOINT LeftToe_End
					{
						OFFSET 0.221200 0.570800 13.248301
						CHANNELS 3 Xrotation Yrotation Zrotation
						End Site
						{
							OFFSET 0.000000 13.262435 0.000000
						}
					}
				}
			}
		}
	}
	JOINT RightUpLeg
	{
		OFFSET -13.839300 -7.904099 -1.463000
		CHANNELS 3 Xrotation Yrotation Zrotation
		JOINT RightLeg
		{
			OFFSET 0.109694 -34.073219 4.093300
			CHANNELS 3 Xrotation Yrotation Zrotation
			JOINT RightFoot
			{
				OFFSET -0.109694 -29.899384 -6.319200
				CHANNELS 3 Xrotation Yrotation Zrotation
				JOINT RightToeBase
				{
					OFFSET -1.551100 -14.988700 20.535801
					CHANNELS 3 Xrotation Yrotation Zrotation
					JOINT RightToe_End
					{
						OFFSET -0.221200 0.570900 13.248299
						CHANNELS 3 Xrotation Yrotation Zrotation
						End Site
						{
							OFFSET 0.000000 13.262440 0.000000
						}
					}
				}
			}
		}
	}
}
MOTION
Frames: 4
Frame Time: 0.033333
-3.471087 69.055756 -1.387587 14.868127 -43.580548 12.553677 14.318776 2.784401 -2.532807 9.152967 5.618679 -4.754317 -2.726510 6.468955 -3.540356 -12.753907 7.381004 -1.274454 -5.779526 21.308361 -4.053795 -0.000001 0.000000 -0.000000 -2.222365 -12.225058 -8.715947 -13.612202 -10.853723 -41.338603 -31.772513 -35.642362 -19.996955 -2.070756 -4.155108 10.891466 -1.295547 -5.929912 -3.287805 0.124290 -0.306683 -7.111091 0.031747 -0.560711 -10.077024 -0.000002 0.000001 -0.000001 17.821702 -11.483304 13.240343 -2.427385 9.601443 -8.274055 4.657626 6.683227 -0.807784 -0.000003 -0.000002 0.000002 -6.629882 25.500286 5.028471 -5.658320 -24.338206 50.943410 -23.801078 43.305517 17.333668 5.858667 36.284058 -0.100906 55.149539 18.649557 -29.698287 -0.442567 -14.180535 7.313154 21.666975 -29.244503 9.142359 -0.000000 0.000002 0.000000 5.673373 7.585032 36.844161 1.050480 3.824492 68.900250 0.499583 3.026060 62.196481 0.000003 -0.000000 0.000001 -73.404699 23.067832 44.170891 47.126741 -24.798346 3.797235 6.271003 0.583342 -12.688843 -0.687939 -6.440260 1.821227 -0.000000 -0.000000 -0.000000 -35.561554 -4.104140 -29.872362 63.266581 4.183925 -4.747982 -37.587286 -4.530046 24.388922 0.279136 2.909458 1.465922 -0.000000 -0.000001 -0.000000 
-3.412886 69.013016 -1.374513 14.980082 -43.708023 12.613409 14.417874 2.783702 -2.530065 9.256579 5.623749 -4.753957 -2.623257 6.474314 -3.536564 -13.263111 7.353850 -1.144652 -5.604796 21.344681 -3.976435 -0.000001 0.000000 0.000000 -2.228512 -12.400235 -8.639643 -13.977513 -11.230090 -41.512070 -31.623305 -35.466659 -19.706564 -2.071721 -4.028691 11.017144 -1.300170 -5.949412 -3.221127 0.124484 -0.305020 -7.075825 0.032004 -0.559086 -10.041797 -0.000003 -0.000001 0.000000 17.828935 -11.461150 13.240533 -2.419990 9.610882 -8.275396 4.669313 6.703481 -0.807867 0.000001 0.000001 0.000001 -6.689086 25.573021 5.131060 -5.605955 -24.224506 51.053871 -23.902624 43.325700 17.209227 5.776109 36.687528 -0.113049 55.149539 18.649558 -29.698284 -0.442566 -14.180534 7.313152 21.666974 -29.244507 9.142362 0.000000 0.000001 0.000000 5.673375 7.585034 36.844154 1.050478 3.824490 68.900250 0.499584 3.026059 62.196481 -0.000000 -0.000002 -0.000001 -73.518401 22.947059 44.285908 47.319964 -24.686937 3.741426 6.167413 0.581191 -12.638252 -0.683161 -6.446051 1.814537 0.000000 0.000001 -0.000000 -35.752349 -4.016015 -29.842299 63.327315 4.223120 -4.803727 -37.515780 -4.519511 24.429567 0.269006 2.967078 1.467603 0.000000 0.000000 -0.000000 
-3.356083 68.972511 -1.349363 15.060089 -43.792192 12.613693 14.485793 2.781497 -2.522318 9.321096 5.611420 -4.751308 -2.560598 6.463414 -3.519729 -13.638760 7.221539 -0.867452 -5.366424 21.406557 -4.046445 -0.000000 0.000000 0.000000 -2.227610 -12.581427 -8.466494 -14.205643 -11.475644 -41.693896 -31.579335 -35.373249 -19.543166 -2.043410 -3.856900 11.133869 -1.302081 -5.960747 -3.162580 0.124643 -0.303423 -7.041976 0.032298 -0.557577 -10.007930 0.000001 0.000003 -0.000003 17.836255 -11.438917 13.240725 -2.410131 9.623368 -8.277400 4.681044 6.723814 -0.807985 -0.000000 0.000000 0.000003 -6.753490 25.611712 5.285635 -5.617809 -24.123511 51.057942 -23.778031 43.271618 17.083533 5.607689 37.052130 -0.182784 55.149539 18.649553 -29.698291 -0.442568 -14.180534 7.313154 21.666975 -29.244507 9.142361 0.000001 0.000003 -0.000000 5.673375 7.585033 36.844154 1.050483 3.824494 68.900250 0.499579 3.026056 62.196481 0.000002 -0.000001 0.000000 -73.628442 22.797964 44.352991 47.520064 -24.589197 3.728649 6.098136 0.565216 -12.596826 -0.724354 -6.419364 1.756271 -0.000000 0.000001 -0.000000 -35.864442 -3.952163 -29.804053 63.348727 4.243005 -4.820219 -37.446987 -4.521054 24.478075 0.204672 3.018691 1.468893 -0.000000 -0.000002 0.000000 
-3.306544 68.947701 -1.303626 15.123849 -43.881940 12.626367 14.532961 2.784462 -2.519255 9.363428 5.618228 -4.751942 -2.518166 6.468542 -3.521602 -13.857430 7.158391 -0.618098 -5.253565 21.505800 -4.077193 0.000001 0.000000 0.000000 -2.225271 -12.821621 -8.247132 -14.305039 -11.584684 -41.884872 -31.596049 -35.329037 -19.350220 -2.036598 -3.714758 11.178770 -1.302189 -5.961709 -3.111138 0.124789 -0.301907 -7.009292 0.032564 -0.556177 -9.975294 0.000002 -0.000001 0.000004 17.843427 -11.416912 13.240904 -2.397901 9.639186 -8.279722 4.692655 6.743913 -0.808087 0.000002 0.000001 0.000000 -6.803080 25.638918 5.400842 -5.547603 -24.063368 51.161088 -23.544840 43.287174 16.934136 5.405121 37.348212 -0.345330 55.149539 18.649555 -29.698287 -0.442568 -14.180538 7.313154 21.666975 -29.244507 9.142359 -0.000001 0.000002 0.000000 5.673370 7.585032 36.844158 1.050479 3.824488 68.900257 0.499581 3.026056 62.196488 -0.000001 0.000002 -0.000006 -73.685392 22.701428 44.415778 47.690116 -24.501506 3.706134 6.024025 0.561387 -12.551642 -0.790602 -6.418656 1.677470 -0.000000 0.000001 -0.000000 -35.952880 -3.928396 -29.792828 63.328203 4.313671 -4.871213 -37.381765 -4.518369 24.514094 0.180556 3.000559 1.468290 -0.000000 0.000003 0.000000 
